<?xml version="1.0" standalone="no"?>
<!DOCTYPE svg PUBLIC "-//W3C//DTD SVG 20010904//EN"
 "http://www.w3.org/TR/2001/REC-SVG-20010904/DTD/svg10.dtd">
<svg version="1.0" xmlns="http://www.w3.org/2000/svg"
 width="128.000000pt" height="128.000000pt" viewBox="0 0 128.000000 128.000000"
 preserveAspectRatio="xMidYMid meet">
<metadata>
Created by potrace 1.11, written by Peter Selinger 2001-2013
</metadata>
<g transform="translate(0.000000,128.000000) scale(0.100000,-0.100000)"
fill="#000000" stroke="none">
<path d="M575 1244 c-33 -19 -73 -41 -90 -49 -16 -9 -95 -55 -175 -103 l-145
-88 0 -434 0 -434 115 -66 115 -67 3 194 c1 106 4 193 7 193 5 0 43 -22 150
-85 l80 -48 105 53 c58 29 167 90 243 134 l137 81 -2 239 -3 239 -70 44 c-83
51 -400 233 -406 233 -2 -1 -31 -17 -64 -36z m97 -263 c18 -10 68 -39 111 -65
43 -25 83 -46 88 -46 6 0 8 -52 7 -126 l-3 -127 -115 -66 -114 -67 -121 77
-120 77 -3 109 c-3 123 -7 114 78 160 30 17 78 44 105 61 28 17 51 31 52 31 1
1 17 -7 35 -18z"/>
</g>
</svg>
